<svg width="249" height="64" xmlns="http://www.w3.org/2000/svg" xmlns:xlink="http://www.w3.org/1999/xlink"><defs><path id="a" d="M.669.342h54.977v44.31H.669z"/><path id="c" d="M.536.054h8.64v8.528H.536z"/></defs><g fill="none" fill-rule="evenodd"><g transform="translate(5.39 18.423)"><mask id="b" fill="#fff"><use xlink:href="#a"/></mask><path d="M34.08 23.626c-3.007 2.89-7.208 3.857-12.813 2.578-5.047-1.846-8.556-5.469-9.376-11.837-.351-2.773.977-8.634 4.571-11.72.86-.742 1.875-1.68 3.203-2.305-3.308 0-6.25 1.328-8.594 2.774C7.633 5.42 3.96 9.562 2.398 14.719c-2.574 7.109-2.813 14.22 3.047 21.565 7.814 8.83 20.04 9.96 30.355 6.68 9.258-2.774 19.181-12.931 19.846-24.67H37.558c-.703 1.757-1.485 3.613-3.477 5.332" fill="#002E3C" mask="url(#b)"/></g><path d="M28.883.794C15.6 2.044 5.677 9 1.576 21.304c-3.165 8.204-1.25 18.87 2.969 25.901-1.29-9.141.78-18.049 7.11-24.26 1.523-1.289 2.539-2.149 3.399-2.695 5.625-3.594 12.188-5.001 18.79-3.438 1.507.386 2.658 1.147 3.634 1.797 1.875 1.64 3.672 3.204 5.118 7.5h18.83c-.195-2.807-.9-6.094-2.032-8.594C56.15 8.92 46.854.482 28.883.795M70.602 28.394c3.823 3.156 7.933 3.932 12.808 3.932 3.202 0 6.404-.274 9.796-1.097l3.032-6.534c-3.202 1.646-6.762 2.83-11.251 2.83-7.121 0-10.323-5.122-10.323-11.433 0-5.534 1.864-10.564 8.41-10.564 2.869 0 6.753.553 9.697 2.95l-2.05-6.474-1.214-.38c-9.755-1.76-15.703.383-19.335 3.355-3.345 2.836-5.21 7.272-5.21 11.479 0 4.665 1.96 8.963 5.64 11.936" fill="#002E3C"/><path d="M97.55 8.135v17.103c0 2.378.549 4.939-1.793 6.357l.286.137h22.385l1.913-6.905h-.24c-2.263 2.118-3.835 2.26-6.977 2.515-1.668.135-5.442-.091-7.018-.686V17.63h2.148c1.768 0 3.34.026 4.874.074v-4.287H106.106V6.122h3.53c2.34 0 6.208-.228 7.498 1.921h.144l-1.143-6.63h-.143c-.526.228-1.292.228-1.722.228H95.686v.137c2.341 1.372 1.864 3.979 1.864 6.357M123.017 25.198c0 2.652.238 4.588-1.866 6.463h8.08c-2.054-1.875-1.53-3.954-1.53-6.606V12.982h.143l9.175 11.707c2.342 2.927 3.25 4.483 6.787 6.174 1.433.687 3.776 1.972 5.449 1.972V8.461c0-2.653-.239-4.808 1.817-6.683v-.137h-8.033v.137c2.055 1.875 1.532 3.887 1.532 6.54v11.844L129.899 1.778v-.137h-9.941v.137c2.581 2.744 3.059 4.122 3.059 7.643v15.777zM177.665 25.258c-2.103 1.509-5.583 1.899-8.205 2.084-2.463.175-3.065.099-5.018-.777V8.226c0-2.423-.335-5.03 2.007-6.448V1.64h-12.856v.137c2.342 1.418 2.008 4.025 2.008 6.402v17.058c0 2.378.334 4.94-2.008 6.357v.138h20.837l3.235-6.475zM190.678 9.37h.048l3.298 9.008h-6.5l3.154-9.009zm-11.325 16.966c-.86 2.332-1.482 3.659-3.298 5.259v.138h9.796v-.138c-.86-.685-1.72-1.28-1.72-2.56 0-.962.526-2.379.86-3.294l1.147-3.11h9.463l1.576 4.437c.287.731.383.96.383 1.737 0 1.464-.289 2.105-1.388 2.79v.138h13.862v-.138c-2.724-2.424-2.964-3.476-4.11-6.403L196.89 1.641h-11.709v.137c.956.595 1.817 1.418 1.817 2.653 0 .96-.765 2.743-1.052 3.658l-6.594 18.247zM223.442 31.595c-2.342-1.417-2.006-4.024-2.006-6.402V5.862h.478c8.352-.925 7.606 2.79 8.042 5.314 0 0 .011 5.194-7.753 4.908l6.269 12.722c1.673 2.835 3.202 3.246 6.404 3.064l5.959-.269c-2.384-1.37-4.156-3.573-5.445-5.63l-4.456-9.03c3.623-1.072 5.662-3.654 5.761-7.083.104-3.563-1.881-5.63-4.702-7.094-2.15-1.098-4.347-1.123-6.689-1.123h-14.716v.137c2.34 1.418 2.006 4.025 2.006 6.402v17.013c0 2.378.335 4.985-2.006 6.402v.138h12.854v-.138zM66.306 52.1c-1.292 0-2.13-1.464-2.13-3.108 0-1.621.805-2.75 1.962-2.75.552 0 1.09.245 1.55.637v-1.285c-.494-.156-1.014-.279-1.526-.279-1.718 0-2.936 1.53-2.936 3.845 0 2.392 1.218 3.866 3.197 3.866.436 0 .872-.09 1.265-.335l.428-1.296h-.025c-.528.403-1.157.705-1.785.705M70.74 52.044l-1.065-.135V49.26h.621c.26 0 .612-.011.746.313h.025v-1.184h-.025c-.1.067-.235.067-.369.067h-.998v-2.08c.268-.067.562-.078.856-.078.386 0 .729.045.99.447h.024v-1.308h-.025c-.11.079-.252.056-.394.056h-2.682v.033c.428.214.377 1.029.377 1.543v4.215c0 .502.05 1.33-.377 1.532v.033h3.495l.377-1.465h-.024c-.42.492-.998.726-1.552.66M78.308 45.49h-1.474v.034c.446.334.436.783.436 1.408v4.237L74.2 46.004l-.118-.223a.758.758 0 01-.126-.28v-.011h-1.222v.034c.436.334.436.783.436 1.408v4.46c0 .626 0 1.074-.445 1.42v.034h1.483v-.034c-.445-.346-.437-.794-.437-1.42v-4.326l2.88 4.862c.369.638.63 1.007 1.222 1.276v-6.272c0-.625 0-1.074.436-1.408v-.034z" fill="#002E3C"/><path d="M82.151 45.496h-3.336c-.108-.022-.218-.022-.318-.078h-.025l-.293 1.33h.025c.26-.324.637-.447.997-.447h.737v4.985c0 .504.051 1.32-.368 1.533v.033h1.659v-.033c-.444-.347-.436-.783-.436-1.42v-5.098h.755c.276 0 .612.056.72.447h.026l.268-1.33h-.025c-.11.067-.243.078-.386.078M88.938 49.262l.83-2.817.822 2.817h-1.652zm3.127 1.968l-1.744-5.735h-1.324v.034c.402.167.243.637.126 1.039l-1.4 4.662c-.135.464-.25.921-.49 1.261a6.548 6.548 0 01-.965-1.202l-1.205-2.022c.686-.213 1.33-.984 1.33-1.969 0-1.017-.61-1.801-1.732-1.801l-1.992-.007v.034c.427.212.369 1.028.369 1.542v4.214c0 .504.058 1.33-.37 1.532v.033h1.6v-.033c-.427-.201-.377-1.017-.377-1.532v-4.999c.193-.044.378-.077.57-.089.56-.033 1.079.436 1.079 1.241 0 1.051-.778 1.464-1.448 1.598l.77 1.577 1.021 1.688c.251.414.527.559.972.559h.771l-.004-.004h.83v-.034c-.403-.201-.344-.524-.168-1.151l.436-1.577h2.112l.453 1.577c.227.783.294.905-.117 1.15v.035h1.719v-.034c-.478-.324-.63-.95-.822-1.587zM95.632 52.041l-1.14-.101v-4.874c0-.502-.059-1.33.368-1.543v-.033h-1.6v.033c.428.214.378 1.029.378 1.543v4.215c0 .503.05 1.33-.378 1.53v.035h3.445l.436-1.487h-.026c-.419.47-.914.727-1.483.682M102.339 52.041l-1.14-.101v-4.874c0-.502-.06-1.33.368-1.543v-.033h-1.6v.033c.428.214.377 1.029.377 1.543v4.215c0 .503.05 1.33-.377 1.53v.035h3.445l.436-1.487h-.026c-.419.47-.914.727-1.483.682M107.265 52.22c-1.32 0-2.152-1.608-2.152-3.173 0-1.686.832-2.938 2.136-2.938 1.328 0 2.11 1.575 2.11 3.207 0 1.665-.816 2.904-2.094 2.904m.043-6.916c-1.766-.056-3.145 1.721-3.145 3.844 0 2.29 1.396 3.877 3.06 3.877 1.674 0 3.087-1.654 3.087-3.933 0-2.012-1.237-3.8-3.002-3.788M112.58 49.262l.83-2.817.822 2.817h-1.651zm3.128 1.968l-1.744-5.735h-1.325v.034c.403.167.243.637.126 1.039l-1.4 4.662c-.185.637-.327 1.263-.814 1.587v.034h1.543v-.034c-.402-.201-.343-.524-.168-1.151l.437-1.577h2.112l.453 1.577c.226.783.293.905-.118 1.15v.035h1.72v-.034c-.479-.324-.63-.95-.822-1.587zM120.933 45.524c.445.335.436.783.436 1.408v4.237l-3.072-5.165-.117-.223a.752.752 0 01-.126-.28v-.011h-1.222v.034c.436.335.436.783.436 1.408v4.46c0 .627 0 1.074-.444 1.42v.034h1.482v-.034c-.445-.346-.437-.793-.437-1.42v-4.326l2.88 4.862c.37.638.63 1.007 1.223 1.276v-6.272c0-.625 0-1.073.435-1.408v-.034h-1.474v.034zM127 49.262l.83-2.817.823 2.817H127zm3.128 1.968l-1.744-5.735h-1.325v.034c.403.167.243.637.126 1.039l-1.4 4.662c-.184.637-.327 1.263-.814 1.587v.034h1.543v-.034c-.402-.201-.343-.524-.168-1.151l.437-1.577h2.112l.454 1.577c.226.783.293.905-.119 1.15v.035h1.72v-.034c-.478-.324-.63-.95-.822-1.587zM133.105 52.04c-.209 0-.41-.022-.612-.078v-5.538c.251-.078.503-.123.755-.123 1.396 0 2.216.982 2.216 2.936 0 1.932-1.112 2.803-2.36 2.803m.218-6.55h-2.051v.033c.427.168.37.984.37 1.499v4.214c0 .66.049 1.196-.37 1.576v.034h2.01c1.875 0 3.135-1.543 3.135-3.745 0-2.225-1.186-3.611-3.094-3.611M143.235 46.183c0-.257.058-.581.26-.66v-.033h-1.451v.01c0 .236-.058.46-.125.694l-1.387 4.74-1.572-4.93c-.05-.157-.117-.324-.117-.503v-.011h-1.47v.034c.386.28.294.727.26 1.04l-.478 4.683c-.067.603-.117 1.151-.47 1.565v.033h1.369v-.033c-.395-.235-.337-.726-.27-1.409l.48-4.807 1.59 5.042c.201.626.318.928.736 1.353l1.873-6.405.478 5.387c0 .381-.05.716-.343.839v.033h1.618v-.033c-.335-.313-.378-.615-.428-1.14l-.553-5.49zM144.517 45.524c.428.212.37 1.028.37 1.542v4.215c0 .503.05 1.33-.37 1.531v.034h1.593v-.034c-.42-.213-.37-1.028-.37-1.531v-4.215c0-.502-.05-1.33.37-1.542v-.034h-1.593v.034zM150.78 45.524c.444.335.436.783.436 1.408v4.237l-3.072-5.165-.118-.223a.752.752 0 01-.125-.28v-.011h-1.223v.034c.436.335.436.783.436 1.408v4.46c0 .627 0 1.074-.444 1.42v.034h1.482v-.034c-.444-.346-.436-.793-.436-1.42v-4.326l2.88 4.862c.368.638.628 1.007 1.222 1.276v-6.272c0-.625 0-1.073.436-1.408v-.034h-1.475v.034zM152.733 45.524c.428.212.37 1.028.37 1.542v4.215c0 .503.05 1.33-.37 1.531v.034h1.593v-.034c-.42-.213-.37-1.028-.37-1.531v-4.215c0-.502-.05-1.33.37-1.542v-.034h-1.593v.034zM155.8 47.138c0-.77.601-1.017 1.079-1.017.469 0 .987.257 1.312.704v-1.263a3.221 3.221 0 00-1.245-.246c-1.021 0-2.097.536-2.097 1.944 0 2.368 2.875 2.056 2.875 3.799 0 .781-.72 1.161-1.197 1.161-.652 0-1.336-.357-1.83-.927l.244 1.397c.475.235.984.335 1.494.335 1.305 0 2.24-1.117 2.24-2.313 0-2.066-2.876-2.045-2.876-3.574M162.637 45.496h-3.338c-.108-.022-.217-.022-.318-.078h-.024l-.294 1.33h.026c.259-.324.636-.447.997-.447h.738v4.985c0 .504.05 1.32-.37 1.533v.033h1.66v-.033c-.444-.347-.436-.783-.436-1.42v-5.098h.754c.277 0 .612.056.72.447h.027l.268-1.33h-.026c-.109.067-.242.078-.384.078M169.423 49.262l.83-2.817.822 2.817h-1.652zm3.127 1.968l-1.744-5.735h-1.325v.034c.403.167.244.637.126 1.039l-1.4 4.662c-.135.464-.25.921-.49 1.261a6.548 6.548 0 01-.964-1.202l-1.205-2.022c.685-.213 1.33-.984 1.33-1.969 0-1.017-.61-1.801-1.732-1.801l-1.993-.007v.034c.428.212.37 1.028.37 1.542v4.214c0 .504.058 1.33-.37 1.532v.033h1.6v-.033c-.426-.201-.377-1.017-.377-1.532v-4.999c.192-.044.377-.077.57-.089.56-.033 1.08.436 1.08 1.241 0 1.051-.78 1.464-1.448 1.598l.769 1.577 1.02 1.688c.252.414.528.559.973.559h.77l-.003-.004h.83v-.034c-.403-.201-.344-.524-.169-1.151l.437-1.577h2.113l.453 1.577c.226.783.293.905-.119 1.15v.035h1.72v-.034c-.478-.324-.63-.95-.822-1.587zM177.057 45.496h-3.337c-.11-.022-.218-.022-.318-.078h-.025l-.294 1.33h.025c.26-.324.637-.447.998-.447h.738v4.985c0 .504.05 1.32-.37 1.533v.033h1.66v-.033c-.444-.347-.436-.783-.436-1.42v-5.098h.754c.277 0 .612.056.722.447h.025l.268-1.33h-.025c-.11.067-.243.078-.385.078M177.55 45.524c.427.212.369 1.028.369 1.542v4.215c0 .503.05 1.33-.37 1.531v.034h1.592v-.034c-.42-.213-.369-1.028-.369-1.531v-4.215c0-.502-.05-1.33.37-1.542v-.034h-1.592v.034zM182.72 52.22c-1.32 0-2.152-1.608-2.152-3.173 0-1.686.832-2.938 2.135-2.938 1.329 0 2.111 1.575 2.111 3.207 0 1.665-.816 2.904-2.094 2.904m.042-6.916c-1.766-.056-3.145 1.721-3.145 3.844 0 2.29 1.395 3.877 3.06 3.877 1.674 0 3.087-1.654 3.087-3.933 0-2.012-1.236-3.8-3.002-3.788M190.351 45.524c.445.335.437.783.437 1.408v4.237l-3.072-5.165-.118-.223a.752.752 0 01-.125-.28v-.011h-1.223v.034c.436.335.436.783.436 1.408v4.46c0 .627 0 1.074-.444 1.42v.034h1.482v-.034c-.445-.346-.436-.793-.436-1.42v-4.326l2.88 4.862c.368.638.628 1.007 1.222 1.276v-6.272c0-.625 0-1.073.435-1.408v-.034h-1.474v.034zM196.844 52.253c-.646 0-1.173-.547-1.173-1.464 0-.694.343-1.263.753-1.655l1.652 2.158c-.293.515-.72.961-1.232.961m-.31-6.204c.31 0 .578.257.578.682 0 .459-.277.86-.544 1.118-.227-.268-.588-.715-.588-1.163 0-.425.251-.637.554-.637m.51 2.46c.387-.459.73-.917.73-1.656 0-.926-.536-1.538-1.206-1.538-.655 0-1.31.623-1.31 1.55 0 .626.362 1.152.672 1.577-.614.648-1.16 1.307-1.16 2.414 0 1.386.95 2.136 1.898 2.136.804 0 1.315-.392 1.743-1.309.26.335.696.772.998.984.226.156.495.179.788.179h.914v-.033c-1.585-.973-2.817-2.705-4.066-4.304M210.414 52.044l-1.064-.135V49.26h.62c.26 0 .612-.011.747.313h.025v-1.184h-.025c-.1.067-.235.067-.37.067h-.997v-2.08c.268-.067.562-.078.856-.078.385 0 .729.045.988.447h.026v-1.308h-.026c-.109.079-.25.056-.394.056h-2.68v.033c.426.214.376 1.029.376 1.543v4.215c0 .415.03 1.044-.197 1.368a6.613 6.613 0 01-1.136-1.362l-1.205-2.023c.686-.213 1.33-.984 1.33-1.968 0-1.017-.61-1.802-1.731-1.802l-1.993-.008v.034c.427.214.368 1.029.368 1.543v4.214c0 .504.06 1.33-.368 1.532v.034h1.6v-.034c-.427-.202-.377-1.017-.377-1.532v-4.998c.192-.045.376-.078.569-.09.56-.033 1.078.436 1.078 1.241 0 1.051-.777 1.464-1.447 1.599l.77 1.576 1.02 1.688c.253.413.529.559.973.559h.771c-.002-.002-.004-.005-.007-.006h3.1l.377-1.465h-.025c-.42.492-.997.726-1.552.66M214.536 45.496l-2.037-.006v.033c.419.224.369 1.04.369 1.543v4.215c0 .503.05 1.33-.378 1.53v.035h1.669v-.034c-.445-.336-.438-.782-.438-1.408v-5.036c.194-.045.387-.067.589-.067.672 0 1.192.391 1.192 1.375 0 1.074-.781 1.665-1.503 1.721.194.124.402.157.613.157.949 0 1.84-.816 1.84-2.102 0-1.251-.825-1.956-1.916-1.956M219.777 52.22c-1.32 0-2.153-1.608-2.153-3.173 0-1.686.833-2.938 2.136-2.938 1.328 0 2.11 1.575 2.11 3.207 0 1.665-.816 2.904-2.093 2.904m.042-6.916c-1.766-.056-3.145 1.721-3.145 3.844 0 2.29 1.396 3.877 3.06 3.877 1.674 0 3.086-1.654 3.086-3.933 0-2.012-1.235-3.8-3-3.788M226.95 51.29l-1.205-2.023c.685-.213 1.33-.984 1.33-1.969 0-1.017-.612-1.8-1.733-1.8l-1.993-.008v.034c.428.212.37 1.028.37 1.543v4.213c0 .504.058 1.33-.37 1.532v.033h1.6v-.033c-.426-.202-.377-1.018-.377-1.532v-4.999c.192-.044.376-.077.569-.089.561-.033 1.08.436 1.08 1.241 0 1.05-.778 1.464-1.448 1.598l.77 1.577 1.021 1.688c.251.414.528.558.972.558h.771a6.762 6.762 0 01-1.358-1.565M231.216 45.496h-3.336c-.11-.022-.218-.022-.319-.078h-.024l-.294 1.33h.025c.26-.324.638-.447.998-.447h.737v4.985c0 .504.05 1.32-.368 1.533v.033h1.659v-.033c-.445-.347-.437-.783-.437-1.42v-5.098h.755c.277 0 .612.056.721.447h.025l.27-1.33h-.026c-.11.067-.244.078-.386.078M231.71 45.524c.427.212.369 1.028.369 1.542v4.215c0 .503.05 1.33-.37 1.531v.034h1.592v-.034c-.42-.213-.368-1.028-.368-1.531v-4.215c0-.502-.051-1.33.368-1.542v-.034h-1.591v.034zM237.971 45.524c.445.335.437.783.437 1.408v4.237l-3.072-5.165-.118-.223a.765.765 0 01-.125-.28v-.011h-1.223v.034c.436.335.436.783.436 1.408v4.46c0 .627 0 1.074-.444 1.42v.034h1.482v-.034c-.445-.346-.436-.793-.436-1.42v-4.326l2.88 4.862c.368.638.628 1.007 1.222 1.276v-6.272c0-.625 0-1.073.435-1.408v-.034h-1.474v.034zM243.926 49.138c.378.2.386.748.386 1.261v1.61c-.376.145-.779.211-1.165.211-1.323 0-2.396-1.362-2.396-3.16 0-1.8.997-2.94 2.304-2.94.512 0 1.148.158 1.492.671h.025v-1.286a4.835 4.835 0 00-1.315-.189c-2.028 0-3.456 1.497-3.456 3.9 0 2.245 1.26 3.81 3.405 3.81.679 0 1.332-.168 2.002-.336-.05-.156-.042-.335-.042-.503v-2.57c0-.167 0-.345.042-.48v-.033h-1.282v.034zM243.045 21.95h1.375v-.015c-.22-.204-.224-.432-.224-.727v-.782l.102.004c.183 0 .392-.01.458.183h.024v-.712h-.024a.503.503 0 01-.188.026h-.372V19.1h.163c.25 0 .538-.03.675.21h.015v-.738h-.015c-.056.03-.137.03-.213.03l-1.776.003v.014c.248.153.213.443.213.707v1.896c0 .27.035.554-.213.712v.015zM243.835 26.577c-.366 0-.783-.162-1.067-.397l.167.732c.315.122.651.182.987.182.361 0 .687-.046.986-.264a.993.993 0 00.406-.823c0-.325-.133-.554-.375-.767-.204-.178-.432-.275-.676-.381-.188-.082-.484-.178-.484-.423 0-.239.244-.325.444-.325.254 0 .502.102.716.239v-.593a2.451 2.451 0 00-.854-.152c-.311 0-.626.061-.885.244a.909.909 0 00-.375.735c0 1.139 1.55 1.012 1.55 1.632 0 .285-.31.361-.54.361M244.037 31.634a.348.348 0 01-.223-.06v-1.071h.122c.386 0 .564.173.564.56 0 .296-.132.571-.463.571zm-.223-2.364c.05-.02.097-.03.147-.03.22 0 .321.192.321.39 0 .217-.127.435-.371.435-.036 0-.061-.01-.097-.02v-.775zm.868.937c.306-.101.54-.304.54-.643 0-.264-.133-.467-.34-.63-.214-.169-.437-.169-.706-.169l-1.513-.001v.015c.248.153.213.442.213.706v1.896c0 .27.035.555-.213.713v.014h1.486c.36 0 .63-.004.903-.244.24-.208.362-.472.362-.787 0-.442-.295-.808-.732-.87zM62.902 38.305l-.096.722h182.46V36.7H63.055c-.058.74-.096 1.105-.154 1.605" fill="#002E3C"/><g transform="translate(238.66 .716)"><mask id="d" fill="#fff"><use xlink:href="#c"/></mask><path d="M4.868 7.871c-1.952 0-3.475-1.511-3.475-3.564 0-2.019 1.523-3.543 3.475-3.543 1.928 0 3.451 1.524 3.451 3.543 0 2.053-1.523 3.564-3.451 3.564m0-7.817C2.52.054.536 1.858.536 4.307c0 2.47 1.985 4.275 4.332 4.275 2.324 0 4.309-1.805 4.309-4.275 0-2.449-1.985-4.253-4.31-4.253" fill="#002E3C" mask="url(#d)"/></g><path d="M242.625 4.73V3.206h1.015c.52 0 1.072.112 1.072.721 0 .756-.563.801-1.196.801h-.891zm2.866-.756c0-.97-.576-1.4-1.737-1.4h-1.874v4.92h.745V5.36h.858l1.297 2.132h.835l-1.4-2.166c.723-.09 1.276-.474 1.276-1.353z" fill="#002E3C"/></g></svg>